# xmcd
#
# Track frame offsets: 
#        150
#        14596
#        29482
#        53454
#        64143
#        85961
#        91763
#        102778
#        115817
#        134200
#        151744
#        161384
#        175628
#        196582
#        221089
#        240872
#        248547
#        265353
#        278388
#
# Disc length: 3960 seconds
#
# Revision: 7
# Processed by: cddbd v1.5.2PL0 Copyright (c) Steve Scherf et al.
# Submitted via: ExactAudioCopy v1.1
#
DISCID=ec0f7613
DTITLE=Canned Heat - The Boogie House Tapes: Canned Heat 1967-1976 Dis
DTITLE=c 1
DYEAR=2000
DGENRE=Rock
TTITLE0=Fito De La Parra - Reefer Blues
TTITLE1=Don Raye - Freddie Slack - House Of Blue Lights
TTITLE2=Sammy Myers - Sleepin' In The Ground
TTITLE3=Hill - Kirby - Lynch - Callard - Caterpillar Crawl
TTITLE4=Fito De La Parra - D. Drone
TTITLE5=These Boots Are Made For...(Studio Jokes)
TTITLE6=Robert Landers - Cherokee Dance
TTITLE7=James Shane - Harley Davidson Blues
TTITLE8=Fito De La Parra - Harvey Mandel - Good Bye For Now
TTITLE9=Lane, J.A. - Chicago Bound
TTITLE10=Floyd Jones - Wilson Alan - On The Road Again
TTITLE11=Human Condition
TTITLE12=Harvey Mandel - My Time Ain't Long
TTITLE13=Wilson Alan - London Blues
TTITLE14=Future Blues
TTITLE15=Fito De La Parra - Move On Down The Road
TTITLE16=Jud Baker - Long Way From La
TTITLE17=Wilson Alan - Going Up The Country
TTITLE18=Wilbert Harrison - Let's Work Together
EXTD=
EXTT0=
EXTT1=
EXTT2=
EXTT3=
EXTT4=
EXTT5=
EXTT6=
EXTT7=
EXTT8=
EXTT9=
EXTT10=
EXTT11=
EXTT12=
EXTT13=
EXTT14=
EXTT15=
EXTT16=
EXTT17=
EXTT18=
PLAYORDER=
